<?xml version="1.0" encoding="UTF-8" standalone="no"?>
<svg
   xmlns:dc="http://purl.org/dc/elements/1.1/"
   xmlns:cc="http://creativecommons.org/ns#"
   xmlns:rdf="http://www.w3.org/1999/02/22-rdf-syntax-ns#"
   xmlns:svg="http://www.w3.org/2000/svg"
   xmlns="http://www.w3.org/2000/svg"
   xmlns:sodipodi="http://sodipodi.sourceforge.net/DTD/sodipodi-0.dtd"
   xmlns:inkscape="http://www.inkscape.org/namespaces/inkscape"
   width="128"
   height="64"
   version="1.1"
   id="svg14"
   sodipodi:docname="apple.svg"
   viewBox="0 0 16384 8192"
   inkscape:version="1.0.1 (3bc2e813f5, 2020-09-07)"
   inkscape:export-filename="D:\Francois\Documents\Development\Python\img_to_array\images\apple.png"
   inkscape:export-xdpi="96"
   inkscape:export-ydpi="96">
  <metadata
     id="metadata20">
    <rdf:RDF>
      <cc:Work
         rdf:about="">
        <dc:format>image/svg+xml</dc:format>
        <dc:type
           rdf:resource="http://purl.org/dc/dcmitype/StillImage" />
        <dc:title>White Apple Logo on black background</dc:title>
      </cc:Work>
    </rdf:RDF>
  </metadata>
  <defs
     id="defs18" />
  <sodipodi:namedview
     pagecolor="#ffffff"
     bordercolor="#666666"
     borderopacity="1"
     objecttolerance="10"
     gridtolerance="10"
     guidetolerance="10"
     inkscape:pageopacity="0"
     inkscape:pageshadow="2"
     inkscape:window-width="1920"
     inkscape:window-height="1017"
     id="namedview16"
     showgrid="false"
     inkscape:zoom="6.9035532"
     inkscape:cx="32.651786"
     inkscape:cy="34.356692"
     inkscape:window-x="-8"
     inkscape:window-y="-8"
     inkscape:window-maximized="1"
     inkscape:current-layer="svg14"
     inkscape:document-rotation="0"
     inkscape:snap-bbox="true"
     inkscape:bbox-nodes="true"
     inkscape:snap-object-midpoints="true"
     inkscape:snap-page="true"
     inkscape:snap-grids="false"
     borderlayer="true"
     inkscape:showpageshadow="false"
     inkscape:pagecheckerboard="true">
    <sodipodi:guide
       position="0,8192"
       orientation="0,128"
       id="guide27" />
    <sodipodi:guide
       position="16384,8192"
       orientation="64,0"
       id="guide29" />
    <sodipodi:guide
       position="16384,0"
       orientation="0,-128"
       id="guide31" />
    <sodipodi:guide
       position="0,0"
       orientation="-64,0"
       id="guide33" />
  </sodipodi:namedview>
  <title
     id="title2">White Apple Logo on black background</title>
  <rect
     style="fill:#000000;stroke-width:128"
     id="rect15"
     width="16384"
     height="8192"
     x="0"
     y="0" />
  <g
     id="g25"
     transform="translate(2.5e-4,-1.8900001e-5)">
    <path
       id="svg_1"
       fill="#ffffff"
       fill-rule="evenodd"
       stroke="#221e20"
       stroke-width="4.15627px"
       d="m 11306.706,2776.8011 2.493,1.6626 v 8.3126 8.3125 l -2.493,1.6626 -1.663,2.4937 -147.963,110.5565 q -147.132,109.7255 -259.351,226.101 -112.219,116.3754 -199.501,253.5322 -87.281,137.1568 -141.313,274.3136 -54.031,137.1567 -83.125,278.4698 -29.094,141.313 -29.094,390.689 0,249.3759 33.25,407.314 33.25,157.9381 95.594,307.5637 62.344,149.6256 149.626,282.6261 87.281,133.0005 182.876,232.7508 95.594,99.7504 197.838,184.5383 101.413,85.619 234.413,164.5881 133.001,78.969 145.47,83.1253 l 12.468,4.1563 8.313,4.1562 8.312,4.1563 8.313,2.4937 8.312,1.6626 v 8.3125 8.3125 l -109.725,274.3136 q -110.557,274.3135 -229.426,492.1019 -118.038,218.6195 -275.976,447.2141 -157.938,228.5947 -284.289,380.7139 -127.181,151.2882 -232.75,249.376 -106.401,97.2567 -218.62,163.7569 -112.219,66.5003 -224.4383,99.7504 -112.2192,33.2501 -145.4693,37.4064 l -33.2501,4.1563 -8.3126,2.4936 -8.3125,1.6626 -66.5003,-1.6626 q -66.5002,-2.4936 -199.5007,-27.4312 -133.0005,-24.9376 -403.1578,-120.5317 -270.1573,-95.5942 -423.9391,-128.8443 -153.7819,-33.2501 -315.8762,-33.2501 -162.0944,0 -290.9386,24.9376 -128.8443,24.9376 -374.064,112.2192 -245.2196,87.2815 -399.0015,128.8442 l -153.7818,41.5627 -33.2501,4.1562 -33.2502,4.1563 v 2.4937 1.6626 h -83.1253 -83.1253 v -1.6626 -2.4937 l -29.0939,-4.1563 -29.0938,-4.1562 -16.6251,-4.1563 q -16.6251,-4.1563 -58.1877,-16.6251 -41.5627,-12.4688 -145.4693,-62.344 -103.9067,-49.8751 -224.4384,-145.4693 -120.5317,-95.5941 -224.4383,-207.8132 -103.9067,-112.2192 -276.8073,-342.4764 -172.0694,-231.0883 -294.2636,-428.9265 -123.0255,-197.0071 -237.7385,-435.5768 -113.8816,-239.4009 -209.4758,-505.4019 -95.5941,-266.001 -162.0943,-540.3145 -66.5003,-274.3136 -102.2442,-565.2522 l -34.9126,-290.9386 v -187.032 -187.0319 h 1.6625 2.4938 l 24.9376,-216.1259 q 24.9376,-216.1258 74.8127,-407.314 49.8752,-191.1882 120.5318,-353.2826 70.6565,-162.0944 162.0943,-311.7199 91.4379,-149.6256 185.3695,-259.3511 93.1003,-110.5566 197.007,-206.1507 103.9066,-95.5941 261.8447,-195.3445 157.9381,-99.7504 320.0325,-166.2506 162.0944,-66.5003 324.1887,-99.7504 162.0944,-33.2502 353.2826,-33.2502 191.1883,0 390.689,49.8752 199.5008,49.8752 502.9082,157.9381 303.4074,108.0629 357.4389,120.5317 54.0314,12.4688 128.8442,8.3126 74.8128,-4.1563 502.9082,-149.6256 428.0953,-145.4693 594.346,-178.7194 166.2506,-33.2502 353.2826,-33.2502 187.0319,0 394.8457,41.5627 207.813,41.5627 357.438,99.7504 149.626,58.1877 280.964,135.4942 130.507,76.4753 242.726,172.0695 112.219,95.5941 203.657,203.657 91.438,108.0629 102.244,123.0254 9.975,14.1314 11.638,16.625 z" />
    <path
       id="svg_4"
       fill="#ffffff"
       fill-rule="evenodd"
       stroke="#221e20"
       stroke-width="4.15627px"
       d="M 9767.2247,3.7406441 V 2.0781378 h 29.0939 29.0939 l 1.6625,45.7189242 q 2.4937,45.718924 -5.8188,207.813288 -8.3125,162.09437 -41.5627,299.25115 -33.2501,137.15677 -91.4378,274.31354 -58.1877,137.15677 -149.6256,282.62606 -91.4378,145.4693 -193.6819,260.1823 -101.413,113.8816 -224.4383,211.1383 -122.1943,98.0878 -244.3886,162.9256 -123.0254,64.0065 -272.651,101.4129 -149.6256,37.4064 -286.7823,39.9001 l -137.1568,1.6625 6.6499,-191.1882 q 5.8189,-191.1882 43.2253,-340.8138 37.4064,-149.6256 101.4129,-284.2886 64.8377,-135.49425 147.963,-256.02596 83.1253,-120.53171 178.7195,-228.59462 95.5941,-108.06291 216.1258,-199.50076 120.5317,-91.43785 257.6885,-166.25063 137.1567,-74.81279 290.9386,-128.844244 153.7818,-54.031456 249.3759,-70.656519 95.5941,-16.6250634 95.5941,-19.1188229 z" />
  </g>
</svg>
