<?xml version="1.0" encoding="UTF-8" standalone="no"?>
<svg
   xmlns:dc="http://purl.org/dc/elements/1.1/"
   xmlns:cc="http://creativecommons.org/ns#"
   xmlns:rdf="http://www.w3.org/1999/02/22-rdf-syntax-ns#"
   xmlns:svg="http://www.w3.org/2000/svg"
   xmlns="http://www.w3.org/2000/svg"
   xmlns:sodipodi="http://sodipodi.sourceforge.net/DTD/sodipodi-0.dtd"
   xmlns:inkscape="http://www.inkscape.org/namespaces/inkscape"
   width="2500"
   height="1357"
   viewBox="29.25 42.107 985.166 534.643"
   version="1.1"
   id="svg18"
   sodipodi:docname="batman.svg"
   inkscape:version="1.0.1 (3bc2e813f5, 2020-09-07)">
  <metadata
     id="metadata24">
    <rdf:RDF>
      <cc:Work
         rdf:about="">
        <dc:format>image/svg+xml</dc:format>
        <dc:type
           rdf:resource="http://purl.org/dc/dcmitype/StillImage" />
      </cc:Work>
    </rdf:RDF>
  </metadata>
  <defs
     id="defs22" />
  <sodipodi:namedview
     pagecolor="#ffffff"
     bordercolor="#666666"
     borderopacity="1"
     objecttolerance="10"
     gridtolerance="10"
     guidetolerance="10"
     inkscape:pageopacity="0"
     inkscape:pageshadow="2"
     inkscape:window-width="1920"
     inkscape:window-height="1017"
     id="namedview20"
     showgrid="false"
     inkscape:zoom="3.5456"
     inkscape:cx="206.03418"
     inkscape:cy="151.49057"
     inkscape:window-x="-8"
     inkscape:window-y="-8"
     inkscape:window-maximized="1"
     inkscape:current-layer="svg18"
     inkscape:document-rotation="0" />
  <path
     d="M692.199 102.8l-.199-.3-.2-.3-.3-.2-.301-.2-.199-.3-.2-.3-.3-.2-.301-.2-.199-.3-.2-.3-.3-.2-.301-.2-.199-.3-.2-.3-.3-.2-.301-.2-.199-.3-.2-.3-.3-.2-.301-.2-.199-.3-.2-.3-.3-.2-.301-.2-.199-.3h4l2 .5 2 .5 34 9.5c22.666 6.333 44 13.5 64 21.5s37.267 15.9 51.8 23.7c14.467 7.866 27.6 15.866 39.399 24 11.867 8.2 22.533 16.533 32 25 9.533 8.533 18.134 17.8 25.801 27.8 7.666 10 13.666 19.333 18 28 4.333 8.667 7.5 17.333 9.5 26s2.833 17.333 2.5 26c-.334 8.666-1.834 17.666-4.5 27-2.667 9.334-6.334 18.666-11 28-4.667 9.334-10.5 18.666-17.5 28s-14.4 17.934-22.2 25.8c-7.867 7.8-18.3 16.367-31.3 25.7s-26.667 17.833-41 25.5c-14.334 7.667-30.334 14.833-48 21.5-17.667 6.667-28 10.5-31 11.5s-5.167 1.667-6.5 2l-2 .5-1.5.5-1.5.5-1.5.5-1.5.5-1 .3-1 .2v-2l1-.2 1-.3.199-.3.301-.2.3-.2.2-.3.199-.3.301-.2.3-.2.2-.3.199-.3.301-.2.3-.2.2-.3.199-.3.301-.2.3-.2c.133-.2.6-.733 1.399-1.6.867-.8 5.533-6.267 14-16.4 8.533-10.2 15.533-20.533 21-31 5.533-10.533 9.301-20.467 11.301-29.8 2-9.334 2.666-17.334 2-24-.667-6.666-2.167-12.5-4.5-17.5-2.334-5-5.268-9.1-8.801-12.3-3.467-3.134-7.699-5.7-12.699-7.7s-11.5-3-19.5-3-17 1.666-27 5-20.167 8.166-30.5 14.5c-10.334 6.334-19.834 13.166-28.5 20.5l-13 11-.2.3-.3.2-.301.2-.199.3-1.5.3-1.5.2-.2-1c-.2-.666-2.634-4.334-7.3-11-4.667-6.666-9.233-11.6-13.7-14.8-4.533-3.134-8.967-4.866-13.3-5.2-4.334-.334-9.167.834-14.5 3.5-5.334 2.666-10 6-14 10s-9.667 11.166-17 21.5c-7.334 10.333-17.733 27.934-31.2 52.8L523.5 503l-.5 1-.5 1-.5 1-.5 1-.5 1-.5 1-.5-1-.5-1-.5-1-.5-1-.301-.2-.199-.3-.2-.3-.3-.2-.5-1c-.334-.667-5.334-10.167-15-28.5-9.667-18.333-18.5-34-26.5-47s-15.233-23.1-21.7-30.3c-6.533-7.134-12.134-12.034-16.8-14.7-4.667-2.666-9-4.166-13-4.5s-7-.166-9 .5-5.167 2.666-9.5 6c-4.334 3.334-8.667 8.434-13 15.3L386 410l-1.5-.2-1.5-.3-.2-.3-.3-.2-.301-.2-.199-.3-13-11c-8.667-7.334-18.167-14.166-28.5-20.5-10.334-6.334-19.667-11-28-14-8.334-3-16-4.834-23-5.5s-13.5-.334-19.5 1-10.834 3.1-14.5 5.3c-3.667 2.134-5.5 3.534-5.5 4.2s-.334 1-1 1c-.667 0-2.4 2.5-5.2 7.5-2.867 5-4.8 9.834-5.8 14.5s-1.167 11-.5 19c.666 8 2.666 16.667 6 26 3.333 9.333 8.166 18.833 14.5 28.5 6.333 9.667 12.733 18.1 19.2 25.3 6.533 7.134 9.866 10.8 10 11l.3.2.3.2.2.3.2.3.3.2.3.2.2.3.2.3.3.2.3.2.2.3.2.3.3.2.3.2.2.3 1 .3 1 .2v2l-1-.2-1-.3-1.5-.5-1.5-.5-1.5-.5-1.5-.5-1.5-.5c-1-.333-4.834-1.5-11.5-3.5-6.667-2-18.5-6.5-35.5-13.5s-32.167-14.167-45.5-21.5c-13.334-7.333-25.5-15-36.5-23s-20.434-15.9-28.3-23.7a280.521 280.521 0 0 1-22-25 199.702 199.702 0 0 1-18-28c-5.134-9.866-9.034-19.634-11.7-29.3-2.667-9.666-4.167-19-4.5-28-.334-9 .5-17.667 2.5-26s5.333-17.167 10-26.5c4.666-9.333 10.899-18.934 18.7-28.8 7.866-9.8 16.966-19.2 27.3-28.2 10.333-9 20.833-17.167 31.5-24.5 10.666-7.333 23.5-15 38.5-23s32.666-16 53-24c20.333-8 41.333-15 63-21l32.5-9 2-.5 2-.5h4l-.2.3-.3.2-.301.2-.199.3-.2.3-.3.2-.301.2-.199.3-.2.3-.3.2-.301.2-.199.3-.2.3-.3.2-.301.2-.199.3-.2.3-.3.2-.301.2-.199.3-.2.3-.3.2-.301.2-.199.3-10.2 12.3c-6.867 8.134-12.134 15.867-15.8 23.2-3.667 7.333-6.167 13.667-7.5 19-1.334 5.333-1.834 10.833-1.5 16.5.333 5.667 1.732 11.233 4.199 16.7 2.533 5.533 5.301 10.133 8.301 13.8s7.833 7.667 14.5 12c6.666 4.333 14.5 8 23.5 11s19.5 4.5 31.5 4.5 20.333-1.167 25-3.5c4.666-2.333 8.933-5.066 12.8-8.2 3.8-3.2 8.033-8.3 12.7-15.3 4.666-7 8.666-14.833 12-23.5 3.333-8.667 5.833-25.667 7.5-51 1.666-25.333 3.066-40.934 4.199-46.8 1.2-5.8 4.4-3.8 9.601 6 5.133 9.866 8.267 16.633 9.399 20.3 1.2 3.667 4.967 4.9 11.301 3.7 6.333-1.134 14.166-1.534 23.5-1.2 9.333.333 16 .934 20 1.8 4 .8 7.6-2.8 10.8-10.8 3.133-8 6.366-14.833 9.7-20.5 3.333-5.667 6 .833 8 19.5s3.333 34.333 4 47c.666 12.667 2.666 23.333 6 32 3.333 8.667 7.1 16.066 11.3 22.2 4.133 6.2 8.033 11.133 11.7 14.8 3.666 3.667 8.166 6.833 13.5 9.5 5.333 2.667 14 4 26 4s22.5-1.5 31.5-4.5 16.333-6.333 22-10c5.666-3.667 10.566-7.733 14.699-12.2 4.2-4.533 7.467-9.633 9.801-15.3 2.333-5.667 3.5-12 3.5-19s-1.167-13.833-3.5-20.5c-2.334-6.667-5.834-13.667-10.5-21-4.667-7.333-9.167-13.5-13.5-18.5-4.334-5-6.6-7.566-6.801-7.7z"
     stroke="#000"
     stroke-width=".5"
     id="path2" />
  <path
     d="M963.8 190.5l.2.5 11.199 14c7.533 9.333 13.967 19 19.301 29 5.333 10 9.666 20.667 13 32 3.333 11.333 5.333 19.667 6 25 .666 5.333.833 13.166.5 23.5-.334 10.334-1.834 20.834-4.5 31.5-2.667 10.666-6.5 21.166-11.5 31.5s-7.667 15.834-8 16.5l-.5 1-.301.2-.199.3-.2.3-.3.2-.5 1c-.334.666-.601 1-.801 1H987l-.2.5c-.2.334-.4.5-.601.5H986l-.2 1-.3 1h-.5l-.2 1c-.2.666-4.3 5.834-12.3 15.5-8 9.667-17.101 19.167-27.301 28.5L930 460h-1l-.2.5-.3.5h-.5l-.2.5-.3.5-.301.2-.199.3-1 .3-1 .2-.2.5c-.2.333-.4.5-.601.5H924l-.2.5c-.2.333-5.967 4.333-17.3 12-11.334 7.667-24.233 15.434-38.7 23.3-14.533 7.8-31.634 15.7-51.3 23.7-19.667 8-41 15.333-64 22s-47.167 12.333-72.5 17a849.113 849.113 0 0 1-76 10.5c-25.334 2.333-52.834 3.5-82.5 3.5-29.667 0-54.667-.833-75-2.5-20.334-1.667-42.667-4.5-67-8.5-24.334-4-48-9-71-15s-44-12.5-63-19.5-37.5-15-55.5-24-33.5-17.667-46.5-26-24.334-16.6-34-24.8L95 444l-.5-.2-.5-.3v-.5l-.5-.2-.5-.3-.2-.3-.3-.2-.3-.2-.2-.3-.2-.3-.3-.2-.3-.2-.2-.3-.2-.3-.3-.2-.3-.2-.2-.3-.2-.3c-.2-.134-1.3-1.2-3.3-3.2S79 427.5 70 416.5 53.333 393.666 47 381c-6.334-12.666-10.834-24.334-13.5-35-2.667-10.666-4-23-4-37s1.333-26.167 4-36.5c2.666-10.333 6.433-20.5 11.3-30.5l7.2-15 .2-.5c.199-.333.399-.5.6-.5h.2l7.8-11.5c5.133-7.667 12.6-16.767 22.4-27.3 9.866-10.467 20.8-20.367 32.8-29.7s25.833-18.667 41.5-28c15.666-9.333 32-17.833 49-25.5s34.666-14.667 53-21c18.333-6.333 39.333-12.333 63-18 23.666-5.667 48.333-10.333 74-14 25.666-3.667 50.666-6.167 75-7.5 24.333-1.333 51.333-1.5 81-.5 29.666 1 57.333 3.167 83 6.5 25.666 3.333 50.333 7.667 74 13 23.666 5.333 47 11.833 70 19.5s43.833 15.833 62.5 24.5c18.666 8.667 35.166 17.5 49.5 26.5 14.333 9 25.232 16.4 32.699 22.2 7.533 5.866 15.134 12.3 22.801 19.3 7.666 7 12.333 11.333 14 13 1.666 1.667 2.6 2.667 2.8 3z"
     fill="#fff"
     stroke="#fff"
     stroke-width=".5"
     id="path4" />
  <path
     d="M951.5 205.8l.5.2.199 1 .301 1 .3.2.2.3 9.199 12.3c6.2 8.134 11.634 17.034 16.301 26.7 4.666 9.667 8.166 19 10.5 28 2.333 9 3.5 20.333 3.5 34 0 13.666-1.334 25.5-4 35.5-2.667 10-5.167 17.5-7.5 22.5-2.334 5-3.601 7.834-3.801 8.5l-.199 1-.5.2c-.334.2-.5.399-.5.6v.2l-.2.5c-.2.334-1.634 2.666-4.3 7-2.667 4.334-7.667 11.166-15 20.5-7.334 9.334-15 17.667-23 25l-12 11-.301.2-.199.3-.2.3-.3.2-.301.2-.199.3v.5l-.5.2-.5.3-1 .5c-.667.333-3.334 2.333-8 6-4.667 3.667-14.067 9.934-28.2 18.8-14.2 8.8-30.4 17.467-48.601 26C815.067 504.267 795.666 512 775 519c-20.667 7-42.834 13.167-66.5 18.5-23.667 5.333-48.167 9.667-73.5 13-25.334 3.333-53 5.5-83 6.5s-56.834.833-80.5-.5c-23.667-1.333-47.5-3.667-71.5-7s-48-7.833-72-13.5-46.834-12.333-68.5-20c-21.667-7.667-41-15.667-58-24s-32.167-16.833-45.5-25.5c-13.334-8.667-25.334-17.434-36-26.3L104 427l-.2-.5c-.2-.333-1.733-2.1-4.6-5.3-2.801-3.134-7.7-9.2-14.7-18.2s-13.1-18.4-18.3-28.2c-5.134-9.866-9.034-19.8-11.7-29.8-2.667-10-4.167-20.334-4.5-31-.334-10.666.166-19.833 1.5-27.5 1.333-7.667 4.1-17 8.3-28L66 242l.5-.2c.333-.2.5-.4.5-.6v-.2l8.5-12.8c5.666-8.467 12.333-17.034 20-25.7 7.666-8.667 17.166-17.667 28.5-27 11.333-9.333 23.833-18.167 37.5-26.5 13.666-8.333 28.833-16.5 45.5-24.5 16.666-8 35-15.5 55-22.5s42-13.333 66-19 48-10.167 72-13.5 47.833-5.667 71.5-7C495.166 61.167 522 61 552 62s57.666 3.167 83 6.5c25.333 3.333 49.833 7.667 73.5 13C732.166 86.833 754.333 93 775 100c20.666 7 39.666 14.5 57 22.5 17.333 8 32.933 16.233 46.8 24.7 13.8 8.533 25.6 16.733 35.399 24.6 9.867 7.8 18.467 15.367 25.801 22.7 7.333 7.333 11.166 11.1 11.5 11.3z"
     fill="#fefefe"
     stroke="#fefefe"
     stroke-width=".5"
     id="path6" />
  <path
     d="m 97.525105,84.883736 -0.0105,-0.0158 -0.0105,-0.0158 -0.0158,-0.0105 -0.0158,-0.0105 -0.0105,-0.0158 -0.0105,-0.0158 -0.0158,-0.0105 -0.0158,-0.0105 -0.0105,-0.0158 -0.0105,-0.0158 -0.0158,-0.0105 -0.0158,-0.0105 -0.0105,-0.0158 -0.0105,-0.0158 -0.0158,-0.0105 -0.0158,-0.0105 -0.0105,-0.0158 -0.0105,-0.0158 -0.0158,-0.0105 -0.0158,-0.0105 -0.0105,-0.0158 -0.0105,-0.0158 -0.0158,-0.0105 -0.0158,-0.0105 -0.0105,-0.0158 h 0.21048 l 0.10524,0.0263 0.10524,0.0263 1.78904,0.49988 c 1.192675,0.33324 2.315245,0.71036 3.367625,1.13131 1.05238,0.42095 1.96096,0.83664 2.72567,1.24707 0.76124,0.41391 1.45228,0.83486 2.07314,1.26286 0.62443,0.43148 1.18566,0.86995 1.6838,1.31548 0.50162,0.44899 0.9542,0.93662 1.35763,1.46281 0.40338,0.52619 0.71909,1.01728 0.94714,1.47333 0.228,0.45605 0.39464,0.91205 0.49988,1.36809 0.10524,0.45605 0.14907,0.91205 0.13155,1.3681 -0.0176,0.456 -0.0965,0.92957 -0.23679,1.42071 -0.14033,0.49115 -0.33328,0.98219 -0.57881,1.47334 -0.24557,0.49114 -0.5525,0.98218 -0.92083,1.473334 -0.36833,0.49115 -0.75771,0.94367 -1.16814,1.35757 -0.41396,0.41043 -0.96293,0.86122 -1.64698,1.35231 -0.68404,0.49109 -1.40319,0.93836 -2.15738,1.34179 -0.75424,0.40343 -1.59614,0.78049 -2.52571,1.13131 -0.92962,0.35081 -1.47334,0.5525 -1.63119,0.60511 -0.15786,0.0526 -0.27189,0.0877 -0.34203,0.10524 l -0.10523,0.0263 -0.0789,0.0263 -0.0789,0.0263 -0.0789,0.0263 -0.0789,0.0263 -0.0526,0.0158 -0.0526,0.0105 v -0.10524 l 0.0526,-0.0105 0.0526,-0.0158 0.0105,-0.0158 0.0158,-0.0105 0.0158,-0.0105 0.0105,-0.0158 0.0105,-0.0158 0.0158,-0.0105 0.0158,-0.0105 0.0105,-0.0158 0.0105,-0.0158 0.0158,-0.0105 0.0158,-0.0105 0.0105,-0.0158 0.0105,-0.0158 0.0158,-0.0105 0.0158,-0.0105 c 0.007,-0.0105 0.0316,-0.0386 0.0736,-0.0842 0.0456,-0.0421 0.29114,-0.32976 0.73666,-0.86295 0.449,-0.53672 0.81734,-1.08043 1.105,-1.63119 0.29115,-0.55424 0.48941,-1.07696 0.59465,-1.56805 0.10524,-0.49115 0.14028,-0.9121 0.10524,-1.26286 -0.0351,-0.35075 -0.11402,-0.657734 -0.23679,-0.920834 -0.12281,-0.26309 -0.27719,-0.47883 -0.4631,-0.64721 -0.18243,-0.16491 -0.40511,-0.29993 -0.6682,-0.40517 -0.2631,-0.10524 -0.60512,-0.15786 -1.02608,-0.15786 -0.42095,0 -0.89452,0.0877 -1.420715,0.2631 -0.52619,0.17543 -1.06117,0.42969 -1.60488,0.76297 -0.54377,0.33329 -1.04365,0.692794 -1.49964,1.078694 l -0.68405,0.57881 -0.0105,0.0158 -0.0158,0.0105 -0.0158,0.0105 -0.0105,0.0158 -0.0789,0.0158 -0.0789,0.0105 -0.0105,-0.0526 c -0.0105,-0.035 -0.1386,-0.22805 -0.38412,-0.57881 -0.24557,-0.35075 -0.48583,-0.610384 -0.72088,-0.778764 -0.23852,-0.16491 -0.47184,-0.25604 -0.69983,-0.27362 -0.22806,-0.0176 -0.48236,0.0439 -0.76298,0.18417 -0.28067,0.14028 -0.52619,0.31571 -0.73667,0.526194 -0.21047,0.21048 -0.50867,0.58754 -0.89452,1.13131 -0.38591,0.54371 -0.93309,1.46986 -1.64171,2.77829 l -1.06817,1.95742 -0.0263,0.0526 -0.0263,0.0526 -0.0263,0.0526 -0.0263,0.0526 -0.0263,0.0526 -0.0263,0.0526 -0.0263,-0.0526 -0.0263,-0.0526 -0.0263,-0.0526 -0.0263,-0.0526 -0.0158,-0.0105 -0.0105,-0.0158 -0.0105,-0.0158 -0.0158,-0.0105 -0.0263,-0.0526 c -0.0176,-0.0351 -0.28067,-0.53497 -0.78929,-1.49964 -0.50867,-0.96466 -0.97345,-1.78905 -1.39441,-2.47309 -0.42095,-0.68405 -0.80154,-1.2155 -1.14183,-1.59436 -0.34376,-0.375394 -0.63848,-0.633224 -0.884,-0.773504 -0.24557,-0.14028 -0.47357,-0.21921 -0.68405,-0.23679 -0.21047,-0.0176 -0.36833,-0.009 -0.47357,0.0263 -0.10524,0.035 -0.27188,0.14029 -0.49988,0.31572 -0.22805,0.17543 -0.45605,0.443794 -0.68405,0.805074 l -0.34202,0.53671 -0.0789,-0.0105 -0.0789,-0.0158 -0.0105,-0.0158 -0.0158,-0.0105 -0.0158,-0.0105 -0.0105,-0.0158 -0.68404,-0.57881 c -0.45605,-0.3859 -0.95593,-0.745404 -1.49965,-1.078694 -0.54376,-0.33328 -1.03485,-0.57881 -1.47333,-0.73666 -0.43853,-0.15786 -0.8419,-0.25436 -1.21024,-0.28941 -0.36833,-0.035 -0.71035,-0.0176 -1.02607,0.0526 -0.31571,0.0702 -0.57007,0.16312 -0.76297,0.27888 -0.19296,0.11229 -0.28941,0.18596 -0.28941,0.221 0,0.0351 -0.0176,0.0526 -0.0526,0.0526 -0.0351,0 -0.12628,0.13155 -0.27362,0.39464 -0.15086,0.2631 -0.25257,0.51746 -0.30519,0.762984 -0.0526,0.24552 -0.0614,0.57881 -0.0263,0.99976 0.035,0.42096 0.14029,0.877 0.31572,1.3681 0.17538,0.49109 0.42968,0.99097 0.76297,1.49964 0.33324,0.50867 0.67,0.95241 1.01029,1.33126 0.34376,0.37539 0.51914,0.56829 0.52619,0.57881 l 0.0158,0.0105 0.0158,0.0105 0.0105,0.0158 0.0105,0.0158 0.0158,0.0105 0.0158,0.0105 0.0105,0.0158 0.0105,0.0158 0.0158,0.0105 0.0158,0.0105 0.0105,0.0158 0.0105,0.0158 0.0158,0.0105 0.0158,0.0105 0.0105,0.0158 0.0526,0.0158 0.0526,0.0105 v 0.10524 l -0.0526,-0.0105 -0.0526,-0.0158 -0.0789,-0.0263 -0.0789,-0.0263 -0.0789,-0.0263 -0.0789,-0.0263 -0.0789,-0.0263 c -0.0526,-0.0175 -0.25436,-0.0789 -0.60512,-0.18416 -0.35081,-0.10524 -0.97345,-0.34203 -1.86798,-0.71036 -0.89452,-0.36833 -1.69259,-0.74546 -2.39416,-1.13131 -0.70162,-0.38586 -1.34179,-0.78929 -1.9206,-1.21024 -0.57881,-0.42095 -1.07522,-0.83664 -1.48912,-1.24707 a 14.760746,14.760746 0 0 1 -1.15762,-1.31548 10.508128,10.508128 0 0 1 -0.94714,-1.473334 c -0.27014,-0.51914 -0.47536,-1.03312 -0.61564,-1.54174 -0.14034,-0.50861 -0.21926,-0.99976 -0.23679,-1.47333 -0.0176,-0.47357 0.0263,-0.92962 0.13155,-1.3681 0.10524,-0.43847 0.28062,-0.90331 0.52619,-1.3944 0.24552,-0.49109 0.5735,-0.99629 0.98398,-1.51543 0.4139,-0.51566 0.89273,-1.01028 1.4365,-1.48386 0.54371,-0.47357 1.09621,-0.90331 1.6575,-1.28916 0.56123,-0.38586 1.23654,-0.78929 2.02583,-1.21024 0.78929,-0.42095 1.71885,-0.8419 2.78881,-1.26286 1.0699,-0.42095 2.1749,-0.78928 3.315,-1.105 l 1.71012,-0.47357 0.10524,-0.0263 0.10523,-0.0263 h 0.21048 l -0.0105,0.0158 -0.0158,0.0105 -0.0158,0.0105 -0.0105,0.0158 -0.0105,0.0158 -0.0158,0.0105 -0.0158,0.0105 -0.0105,0.0158 -0.0105,0.0158 -0.0158,0.0105 -0.0158,0.0105 -0.0105,0.0158 -0.0105,0.0158 -0.0158,0.0105 -0.0158,0.0105 -0.0105,0.0158 -0.0105,0.0158 -0.0158,0.0105 -0.0158,0.0105 -0.0105,0.0158 -0.0105,0.0158 -0.0158,0.0105 -0.0158,0.0105 -0.0105,0.0158 -0.53672,0.64721 c -0.36133,0.428 -0.63848,0.83491 -0.83138,1.22076 -0.19295,0.38586 -0.3245,0.71915 -0.39464,0.99976 -0.0702,0.28062 -0.0965,0.57003 -0.0789,0.86822 0.0175,0.29819 0.0911,0.59107 0.22095,0.87874 0.13328,0.29114 0.27893,0.53319 0.43679,0.72614 0.15785,0.19295 0.41216,0.40343 0.76297,0.63143 0.35076,0.228 0.76298,0.42095 1.23655,0.57881 0.47357,0.15785 1.02607,0.23678 1.6575,0.23678 0.63143,0 1.0699,-0.0614 1.31548,-0.18416 0.24552,-0.12276 0.47004,-0.26657 0.67352,-0.43148 0.19995,-0.16838 0.42269,-0.43674 0.66826,-0.80507 0.24552,-0.36833 0.456,-0.7805 0.63143,-1.23655 0.17538,-0.45605 0.30693,-1.35057 0.39464,-2.68357 0.0877,-1.333 0.16133,-2.15391 0.22095,-2.46257 0.0631,-0.30519 0.23152,-0.19995 0.5052,0.31571 0.27009,0.51914 0.435,0.87522 0.49456,1.06817 0.0632,0.19295 0.26136,0.25783 0.59465,0.19469 0.33324,-0.0597 0.7454,-0.0807 1.23655,-0.0631 0.49109,0.0175 0.8419,0.0491 1.05238,0.0947 0.21048,0.0421 0.3999,-0.14733 0.56828,-0.56828 0.16486,-0.42096 0.33498,-0.7805 0.51041,-1.07869 0.17538,-0.2982 0.31571,0.0438 0.42095,1.02607 0.10524,0.98224 0.17538,1.80657 0.21048,2.47309 0.035,0.66653 0.14028,1.22776 0.31571,1.68381 0.17538,0.45605 0.3736,0.84538 0.5946,1.16814 0.21747,0.32624 0.42269,0.58581 0.61564,0.77877 0.1929,0.19295 0.42969,0.35954 0.71036,0.49988 0.28061,0.14033 0.73666,0.21047 1.36809,0.21047 0.63143,0 1.18393,-0.0789 1.6575,-0.23678 0.47357,-0.15786 0.85943,-0.33324 1.15762,-0.52619 0.29814,-0.19296 0.55597,-0.40691 0.77345,-0.64195 0.221,-0.23853 0.3929,-0.50688 0.51572,-0.80508 0.12276,-0.29819 0.18416,-0.63142 0.18416,-0.99976 0,-0.36833 -0.0614,-0.72788 -0.18416,-1.07869 -0.12282,-0.35081 -0.30698,-0.71914 -0.5525,-1.105 -0.24558,-0.38585 -0.48236,-0.71036 -0.71036,-0.97345 -0.22805,-0.2631 -0.34729,-0.39812 -0.35786,-0.40517 z"
     fill="#030303"
     stroke="#030303"
     stroke-width="0.0263095"
     id="path8"
     inkscape:export-xdpi="102.06509"
     inkscape:export-ydpi="102.06509" />
</svg>
