<?xml version="1.0" encoding="UTF-8" standalone="no"?>
<svg
   xmlns:dc="http://purl.org/dc/elements/1.1/"
   xmlns:cc="http://creativecommons.org/ns#"
   xmlns:rdf="http://www.w3.org/1999/02/22-rdf-syntax-ns#"
   xmlns:svg="http://www.w3.org/2000/svg"
   xmlns="http://www.w3.org/2000/svg"
   xmlns:sodipodi="http://sodipodi.sourceforge.net/DTD/sodipodi-0.dtd"
   xmlns:inkscape="http://www.inkscape.org/namespaces/inkscape"
   width="128"
   height="64"
   viewBox="29.25 42.107 50.440499 25.215293"
   version="1.1"
   id="svg18"
   sodipodi:docname="batman.svg"
   inkscape:version="1.0.1 (3bc2e813f5, 2020-09-07)"
   inkscape:export-filename="D:\Francois\Documents\Development\Python\img_to_array\images\batman.png"
   inkscape:export-xdpi="96"
   inkscape:export-ydpi="96">
  <metadata
     id="metadata24">
    <rdf:RDF>
      <cc:Work
         rdf:about="">
        <dc:format>image/svg+xml</dc:format>
        <dc:type
           rdf:resource="http://purl.org/dc/dcmitype/StillImage" />
        <dc:title></dc:title>
      </cc:Work>
    </rdf:RDF>
  </metadata>
  <defs
     id="defs22" />
  <sodipodi:namedview
     pagecolor="#ffffff"
     bordercolor="#666666"
     borderopacity="1"
     objecttolerance="10"
     gridtolerance="10"
     guidetolerance="10"
     inkscape:pageopacity="0"
     inkscape:pageshadow="2"
     inkscape:window-width="1920"
     inkscape:window-height="1017"
     id="namedview20"
     showgrid="false"
     inkscape:zoom="5.5625"
     inkscape:cx="54.908526"
     inkscape:cy="55.153967"
     inkscape:window-x="-8"
     inkscape:window-y="-8"
     inkscape:window-maximized="1"
     inkscape:current-layer="svg18"
     inkscape:document-rotation="0"
     inkscape:pagecheckerboard="true"
     borderlayer="true"
     inkscape:showpageshadow="false"
     inkscape:snap-object-midpoints="true"
     inkscape:snap-bbox="true"
     inkscape:bbox-nodes="true">
    <sodipodi:guide
       position="0,25.215293"
       orientation="0,128"
       id="guide18" />
    <sodipodi:guide
       position="50.440499,25.215293"
       orientation="64,0"
       id="guide20" />
    <sodipodi:guide
       position="50.440499,0"
       orientation="0,-128"
       id="guide22" />
    <sodipodi:guide
       position="0,0"
       orientation="-64,0"
       id="guide24" />
  </sodipodi:namedview>
  <rect
     style="fill:#ffffff;stroke-width:0.394066"
     id="rect26"
     width="50.440498"
     height="25.220249"
     x="29.25"
     y="42.104523" />
  <path
     d="m 64.075319,43.982664 -0.01116,-0.0168 -0.01116,-0.0168 -0.0168,-0.01116 -0.0168,-0.01116 -0.01116,-0.0168 -0.01116,-0.0168 -0.0168,-0.01116 -0.0168,-0.01116 -0.01116,-0.0168 -0.01116,-0.0168 -0.0168,-0.01116 -0.0168,-0.01116 -0.01116,-0.0168 -0.01116,-0.0168 -0.0168,-0.01116 -0.0168,-0.01116 -0.01116,-0.0168 -0.01116,-0.0168 -0.0168,-0.01116 -0.0168,-0.01116 -0.01116,-0.0168 -0.01116,-0.0168 -0.0168,-0.01116 -0.0168,-0.01116 -0.01116,-0.0168 h 0.223778 l 0.111889,0.02796 0.111889,0.02796 1.902068,0.531462 c 1.268026,0.354293 2.461518,0.755239 3.580385,1.202784 1.118867,0.447544 2.08485,0.889497 2.897873,1.325857 0.809333,0.44006 1.544032,0.887605 2.204117,1.342645 0.66388,0.45874 1.260567,0.924912 1.790179,1.39859 0.533311,0.477356 1.014484,0.995794 1.443402,1.555227 0.428865,0.559434 0.764521,1.08155 1.006979,1.566412 0.242404,0.484863 0.419572,0.969672 0.531461,1.454524 0.111889,0.484862 0.158488,0.969671 0.139861,1.454533 -0.01871,0.48481 -0.102596,0.988299 -0.25175,1.510468 -0.149196,0.52218 -0.354336,1.044243 -0.615378,1.566423 -0.261084,0.522169 -0.587406,1.044232 -0.979006,1.566416 -0.3916,0.52218 -0.805581,1.00329 -1.241941,1.443339 -0.440113,0.43636 -1.023766,0.91563 -1.751033,1.437746 -0.727256,0.522116 -1.491841,0.997644 -2.293679,1.426562 -0.801891,0.428918 -1.696981,0.8298 -2.685279,1.202784 -0.988352,0.372973 -1.566423,0.587406 -1.734246,0.64334 -0.167833,0.05592 -0.289067,0.09324 -0.363639,0.111889 l -0.111878,0.02796 -0.08388,0.02796 -0.08388,0.02796 -0.08389,0.02796 -0.08388,0.02796 -0.05592,0.0168 -0.05592,0.01116 v -0.111894 l 0.05592,-0.01116 0.05592,-0.0168 0.01116,-0.0168 0.0168,-0.01116 0.0168,-0.01116 0.01116,-0.0168 0.01116,-0.0168 0.0168,-0.01116 0.0168,-0.01116 0.01116,-0.0168 0.01116,-0.0168 0.0168,-0.01116 0.0168,-0.01116 0.01116,-0.0168 0.01116,-0.0168 0.0168,-0.01116 0.0168,-0.01116 c 0.0074,-0.01116 0.0336,-0.04104 0.07825,-0.08952 0.04848,-0.04476 0.309534,-0.350594 0.783201,-0.91747 0.477367,-0.570629 0.868978,-1.148689 1.174812,-1.734245 0.309544,-0.589256 0.52033,-1.145001 0.632219,-1.667117 0.111889,-0.52218 0.149142,-0.969724 0.111889,-1.342645 -0.03732,-0.37291 -0.121224,-0.699288 -0.25175,-0.97901 -0.130569,-0.279712 -0.294703,-0.509082 -0.492358,-0.6881 -0.193956,-0.175328 -0.430704,-0.318879 -0.710416,-0.430768 -0.279722,-0.111889 -0.64335,-0.167833 -1.090906,-0.167833 -0.447544,0 -0.951034,0.09324 -1.510473,0.279722 -0.559433,0.186514 -1.128212,0.456837 -1.706273,0.811173 -0.578124,0.354347 -1.109586,0.736564 -1.594384,1.146844 l -0.727267,0.615378 -0.01116,0.0168 -0.0168,0.01116 -0.0168,0.01116 -0.01116,0.0168 -0.08389,0.0168 -0.08389,0.01116 -0.01116,-0.05592 c -0.01116,-0.03721 -0.147357,-0.242458 -0.408388,-0.615378 -0.261085,-0.37291 -0.516524,-0.648947 -0.766424,-0.827965 -0.253589,-0.175329 -0.50165,-0.272216 -0.744044,-0.290907 -0.242468,-0.01871 -0.512834,0.04667 -0.811183,0.195805 -0.298403,0.149143 -0.559434,0.335656 -0.783212,0.559438 -0.223767,0.223778 -0.540807,0.62466 -0.951034,1.202784 -0.410291,0.578061 -0.992041,1.562723 -1.74543,2.953817 l -1.135655,2.081086 -0.02796,0.05592 -0.02796,0.05592 -0.02796,0.05592 -0.02796,0.05592 -0.02796,0.05592 -0.02796,0.05592 -0.02796,-0.05592 -0.02796,-0.05592 -0.02796,-0.05592 -0.02796,-0.05592 -0.0168,-0.01116 -0.01116,-0.0168 -0.01116,-0.0168 -0.0168,-0.01116 -0.02796,-0.05592 c -0.01871,-0.03732 -0.298403,-0.568768 -0.839156,-1.594384 -0.540807,-1.025605 -1.034951,-1.902079 -1.482506,-2.629335 -0.447545,-0.727267 -0.85218,-1.292293 -1.213969,-1.695089 -0.365478,-0.39911 -0.678818,-0.673229 -0.939849,-0.822372 -0.261085,-0.149143 -0.50349,-0.233059 -0.727267,-0.25175 -0.223767,-0.01871 -0.391601,-0.0096 -0.503489,0.02796 -0.111889,0.03721 -0.289057,0.149153 -0.531462,0.335666 -0.242458,0.186513 -0.484862,0.471832 -0.727267,0.855937 l -0.363628,0.570618 -0.08388,-0.01116 -0.08389,-0.0168 -0.01116,-0.0168 -0.0168,-0.01116 -0.0168,-0.01116 -0.01116,-0.0168 -0.727256,-0.615378 c -0.484862,-0.410281 -1.016324,-0.792498 -1.594395,-1.146844 -0.578114,-0.354336 -1.10023,-0.615378 -1.566412,-0.783201 -0.466236,-0.167833 -0.89509,-0.27043 -1.286701,-0.307694 -0.3916,-0.03721 -0.755228,-0.01871 -1.090895,0.05592 -0.335656,0.07464 -0.606086,0.173425 -0.811173,0.296499 -0.205151,0.119384 -0.307694,0.197709 -0.307694,0.234962 0,0.03732 -0.01871,0.05592 -0.05592,0.05592 -0.03732,0 -0.134259,0.139862 -0.290907,0.419573 -0.160391,0.279722 -0.268527,0.550152 -0.324471,0.811188 -0.05592,0.261031 -0.06528,0.615378 -0.02796,1.062923 0.03721,0.447555 0.149153,0.932407 0.335667,1.454534 0.18646,0.522116 0.456826,1.053577 0.811172,1.594384 0.354294,0.540807 0.71233,1.012582 1.074119,1.415367 0.365478,0.399106 0.551938,0.604193 0.559433,0.615378 l 0.0168,0.01116 0.0168,0.01116 0.01116,0.0168 0.01116,0.0168 0.0168,0.01116 0.0168,0.01116 0.01116,0.0168 0.01116,0.0168 0.0168,0.01116 0.0168,0.01116 0.01116,0.0168 0.01116,0.0168 0.0168,0.01116 0.0168,0.01116 0.01116,0.0168 0.05592,0.0168 0.05592,0.01116 v 0.111889 l -0.05592,-0.01116 -0.05592,-0.0168 -0.08389,-0.02796 -0.08388,-0.02796 -0.08389,-0.02796 -0.08388,-0.02796 -0.08389,-0.02796 c -0.05592,-0.01861 -0.27043,-0.08389 -0.64335,-0.195795 -0.372974,-0.111889 -1.034951,-0.363639 -1.985996,-0.755239 -0.951034,-0.3916 -1.799524,-0.792557 -2.545418,-1.202784 -0.745947,-0.410238 -1.426562,-0.839156 -2.04194,-1.286701 -0.615378,-0.447544 -1.14315,-0.889497 -1.5832,-1.325857 a 15.693301,15.693301 0 0 1 -1.230756,-1.39859 11.172011,11.172011 0 0 1 -1.006978,-1.566416 c -0.287207,-0.551938 -0.505393,-1.09839 -0.654535,-1.639144 -0.149207,-0.540743 -0.233113,-1.062923 -0.25175,-1.566412 -0.01871,-0.503489 0.02796,-0.988352 0.139861,-1.454534 0.111889,-0.466172 0.298349,-0.96038 0.559433,-1.482496 0.261032,-0.522116 0.609733,-1.059233 1.046146,-1.611172 0.44005,-0.548238 0.949131,-1.074107 1.527256,-1.577607 0.57806,-0.503489 1.165466,-0.960379 1.762217,-1.370607 0.596688,-0.410238 1.314663,-0.839155 2.153818,-1.2867 0.839156,-0.447545 1.827444,-0.89509 2.965002,-1.342645 1.137494,-0.447545 2.312306,-0.839145 3.524435,-1.174812 l 1.818162,-0.503489 0.111889,-0.02796 0.111878,-0.02796 h 0.223778 l -0.01116,0.0168 -0.0168,0.01116 -0.0168,0.01116 -0.01116,0.0168 -0.01116,0.0168 -0.0168,0.01116 -0.0168,0.01116 -0.01116,0.0168 -0.01116,0.0168 -0.0168,0.01116 -0.0168,0.01116 -0.01116,0.0168 -0.01116,0.0168 -0.0168,0.01116 -0.0168,0.01116 -0.01116,0.0168 -0.01116,0.0168 -0.0168,0.01116 -0.0168,0.01116 -0.01116,0.0168 -0.01116,0.0168 -0.0168,0.01116 -0.0168,0.01116 -0.01116,0.0168 -0.570629,0.688099 c -0.384158,0.45504 -0.678818,0.887658 -0.883905,1.297885 -0.20514,0.410238 -0.345001,0.764585 -0.419572,1.062923 -0.07464,0.298349 -0.102597,0.606044 -0.08389,0.923073 0.01861,0.317029 0.09686,0.628412 0.234909,0.934257 0.1417,0.309533 0.296552,0.566876 0.464386,0.772016 0.167822,0.20514 0.438199,0.428918 0.811173,0.671322 0.37292,0.242405 0.811183,0.447545 1.314672,0.615378 0.50349,0.167823 1.090896,0.25174 1.762218,0.25174 0.671323,0 1.137494,-0.06528 1.39859,-0.195795 0.261031,-0.130516 0.499736,-0.283411 0.716071,-0.45874 0.212583,-0.179018 0.449395,-0.464333 0.71048,-0.855933 0.261031,-0.3916 0.484809,-0.82981 0.671322,-1.314673 0.18646,-0.484862 0.326321,-1.435896 0.419573,-2.853113 0.09324,-1.417216 0.171522,-2.289989 0.234909,-2.61815 0.06709,-0.324471 0.246147,-0.212582 0.537118,0.335656 0.287153,0.551938 0.462482,0.930515 0.525805,1.135655 0.06719,0.20514 0.277872,0.274119 0.632219,0.20699 0.354293,-0.06347 0.792493,-0.0858 1.314673,-0.06709 0.522116,0.01861 0.895089,0.0522 1.118867,0.100682 0.223778,0.04476 0.425165,-0.156638 0.604183,-0.604182 0.175275,-0.447556 0.356143,-0.829811 0.542656,-1.14684 0.186461,-0.31704 0.335656,0.04657 0.447545,1.090895 0.111889,1.044296 0.18646,1.920706 0.223778,2.629335 0.03721,0.70864 0.149143,1.305328 0.335656,1.79019 0.18646,0.484862 0.397203,0.89879 0.632166,1.241941 0.231209,0.346851 0.449394,0.62282 0.654534,0.827971 0.205088,0.20514 0.456837,0.382255 0.75524,0.531462 0.298338,0.149195 0.7832,0.223767 1.454523,0.223767 0.671322,0 1.258728,-0.08388 1.762218,-0.25174 0.503489,-0.167833 0.913727,-0.354293 1.230756,-0.559433 0.316976,-0.205151 0.591095,-0.432618 0.822315,-0.682507 0.234962,-0.2536 0.417722,-0.538904 0.548302,-0.855944 0.130516,-0.317029 0.195795,-0.671312 0.195795,-1.062923 0,-0.3916 -0.06528,-0.773866 -0.195795,-1.146839 -0.130625,-0.372957 -0.326419,-0.764557 -0.587451,-1.174795 -0.261095,-0.410227 -0.512834,-0.755239 -0.755239,-1.034951 -0.242458,-0.279722 -0.369231,-0.423272 -0.380469,-0.430768 z"
     fill="#030303"
     stroke="#030303"
     stroke-width="0.0279717"
     id="path8"
     inkscape:export-xdpi="102.06509"
     inkscape:export-ydpi="102.06509" />
</svg>
