<?xml version="1.0" encoding="UTF-8" standalone="no"?>
<svg
   xmlns:dc="http://purl.org/dc/elements/1.1/"
   xmlns:cc="http://creativecommons.org/ns#"
   xmlns:rdf="http://www.w3.org/1999/02/22-rdf-syntax-ns#"
   xmlns:svg="http://www.w3.org/2000/svg"
   xmlns="http://www.w3.org/2000/svg"
   xmlns:sodipodi="http://sodipodi.sourceforge.net/DTD/sodipodi-0.dtd"
   xmlns:inkscape="http://www.inkscape.org/namespaces/inkscape"
   width="128"
   height="64"
   viewBox="0 0 128 63.999999"
   id="svg4305"
   version="1.1"
   inkscape:version="1.0.1 (3bc2e813f5, 2020-09-07)"
   sodipodi:docname="ww.svg"
   inkscape:export-filename="D:\Francois\Documents\Development\Python\img_to_array\images\ww.png"
   inkscape:export-xdpi="96"
   inkscape:export-ydpi="96">
  <defs
     id="defs4307" />
  <sodipodi:namedview
     id="base"
     pagecolor="#ffffff"
     bordercolor="#666666"
     borderopacity="1.0"
     inkscape:pageopacity="0.0"
     inkscape:pageshadow="2"
     inkscape:zoom="7.919596"
     inkscape:cx="66.399112"
     inkscape:cy="29.34835"
     inkscape:document-units="px"
     inkscape:current-layer="layer1"
     showgrid="false"
     units="px"
     inkscape:window-width="1920"
     inkscape:window-height="1017"
     inkscape:window-x="-8"
     inkscape:window-y="-8"
     inkscape:window-maximized="1"
     inkscape:document-rotation="0"
     inkscape:snap-bbox="true"
     inkscape:bbox-nodes="true"
     inkscape:snap-page="true"
     showguides="true"
     inkscape:guide-bbox="true"
     inkscape:snap-object-midpoints="true"
     inkscape:snap-grids="false" />
  <metadata
     id="metadata4310">
    <rdf:RDF>
      <cc:Work
         rdf:about="">
        <dc:format>image/svg+xml</dc:format>
        <dc:type
           rdf:resource="http://purl.org/dc/dcmitype/StillImage" />
        <dc:title />
      </cc:Work>
    </rdf:RDF>
  </metadata>
  <g
     inkscape:label="Layer 1"
     inkscape:groupmode="layer"
     id="layer1"
     transform="translate(0,-629.80114)">
    <rect
       style="fill:#ffffff"
       id="rect12"
       width="128"
       height="64"
       x="0"
       y="629.80115" />
    <g
       id="g15"
       inkscape:export-filename="D:\Francois\Documents\Development\Python\img_to_array\images\ww.png"
       inkscape:export-xdpi="98.078201"
       inkscape:export-ydpi="98.078201"
       transform="matrix(0.99596133,0,0,0.99596133,0.84958815,3.2044208)">
      <path
         id="path50"
         style="fill:#000000;fill-opacity:1;fill-rule:nonzero;stroke:none;stroke-width:0.12506"
         d="M 37.880898,650.50774 H 14.989557 c 0,0 -1.635565,-0.041 -3.270026,-1.7508 -1.606522,-1.6809 -3.2384768,-5.066 -3.2384768,-5.066 H 35.208088 c 0,0 3.300268,0.081 4.761747,3.0027 1.462528,2.9224 2.882188,5.4379 2.882188,5.4379 0,0 -2.171048,-1.6238 -4.971125,-1.6238"
         inkscape:connector-curvature="0" />
      <path
         id="path52"
         style="fill:#000000;fill-opacity:1;fill-rule:nonzero;stroke:none;stroke-width:0.12506"
         d="m 88.932151,650.50774 h 22.892459 c 0,0 1.63434,-0.041 3.26868,-1.7508 1.60754,-1.6809 3.239,-5.066 3.239,-5.066 H 91.605419 c 0,0 -3.300116,0.081 -4.762163,3.0027 -1.46209,2.9224 -2.882231,5.4379 -2.882231,5.4379 0,0 2.17214,-1.6238 4.971126,-1.6238"
         inkscape:connector-curvature="0" />
      <path
         id="path54"
         style="fill:#000000;fill-opacity:1;fill-rule:nonzero;stroke:none;stroke-width:0.12506"
         d="m 88.669058,634.84815 c 0,0 -5.639879,-0.36493 -9.180344,6.28419 l -6.322601,11.5097 -9.758913,-17.77817 -9.760308,17.77817 -6.322077,-11.5097 c -3.540858,-6.64912 -9.180912,-6.28419 -9.180912,-6.28419 H 0.87644948 c 0,0 1.63150542,3.38569 3.23890592,5.06659 1.6344607,1.7112 3.2691528,1.7513 3.2691528,1.7513 H 35.417732 c 0,0 3.760906,0 5.808418,3.9049 l 8.154601,14.8429 4.269283,7.7713 4.266274,-7.773 5.490892,-10.0011 5.489716,10.0011 4.266839,7.773 4.269197,-7.7713 8.153118,-14.8429 c 2.048735,-3.9049 5.80925,-3.9049 5.80925,-3.9049 h 28.03409 c 0,0 1.63377,-0.04 3.26925,-1.7513 1.60702,-1.6809 3.23787,-5.06659 3.23787,-5.06659 H 88.669058"
         inkscape:connector-curvature="0" />
      <path
         id="path56"
         style="fill:#000000;fill-opacity:1;fill-rule:nonzero;stroke:none;stroke-width:0.12506"
         d="m 89.757486,652.41614 c 0,0 -5.640491,-0.3655 -9.180955,6.2831 l -7.349916,13.4268 -9.819415,-17.8875 -9.820811,17.8875 -7.34974,-13.4268 c -3.539679,-6.6486 -9.180389,-6.2831 -9.180389,-6.2831 H 16.500565 c 0,0 1.63219,3.3845 3.238713,5.0654 1.635329,1.7101 3.270021,1.752 3.270021,1.752 h 11.321435 c 0,0 3.759738,0 5.807555,3.9042 l 9.178816,16.7677 4.261559,7.7847 4.270112,-7.78 5.558424,-10.125 5.557202,10.125 4.270377,7.78 4.261643,-7.7847 9.1786,-16.7677 c 2.048166,-3.9042 5.808113,-3.9042 5.808113,-3.9042 H 103.8048 c 0,0 1.63317,-0.042 3.26925,-1.752 1.60698,-1.6809 3.23844,-5.0654 3.23844,-5.0654 H 89.757486"
         inkscape:connector-curvature="0" />
    </g>
  </g>
</svg>
